# xmcd CD database file
#
# Track frame offsets:
#	150
#	20746
#	41869
#	57980
#	71354
#	92579
#	113675
#	130036
#	151621
#	167072
#	185488
#	208275
#	229515
#	250033
#
# Disc length: 3689 seconds
#
# Revision: 0
# Processed by: cddbd v1.5.2PL0 Copyright (c) Steve Scherf et al.
# Submitted via: CDex 1.70beta2
#
DISCID=b50e670e
DTITLE=Heiner Franz Blue Jazznicks - Play Duke
DYEAR=2008
DGENRE=Jazz
TTITLE0=It Don't Mean A Thing
TTITLE1=The Mooche
TTITLE2=Caravan
TTITLE3=I Got It Bad
TTITLE4=Just Squeeze Me
TTITLE5=Mood Indigo
TTITLE6=I Let A Song Go Out Of My Heart
TTITLE7=Rent Party Blues
TTITLE8=Sophisticated Lady
TTITLE9=Shout'em Aunt Tillie
TTITLE10=Do Nothing Till You Hear From Me
TTITLE11=Ring Them Bells
TTITLE12=Solitude
TTITLE13=Perdido
EXTD=YEAR: 2008
EXTT0=
EXTT1=
EXTT2=
EXTT3=
EXTT4=
EXTT5=
EXTT6=
EXTT7=
EXTT8=
EXTT9=
EXTT10=
EXTT11=
EXTT12=
EXTT13=
PLAYORDER=
